<?xml version="1.0" standalone="no"?>
<!DOCTYPE svg PUBLIC "-//W3C//DTD SVG 20010904//EN"
 "http://www.w3.org/TR/2001/REC-SVG-20010904/DTD/svg10.dtd">
<svg version="1.0" xmlns="http://www.w3.org/2000/svg"
 width="16.000000pt" height="16.000000pt" viewBox="0 0 16.000000 16.000000"
 preserveAspectRatio="xMidYMid meet">
<metadata>
Created by potrace 1.11, written by Peter Selinger 2001-2013
</metadata>
<g transform="translate(0.000000,16.000000) scale(0.002286,-0.002286)"
fill="#000000" stroke="none">
<path d="M4998 6955 c-2 -1 -64 -5 -138 -9 -74 -3 -146 -8 -160 -10 -24 -4
-59 -8 -200 -22 -36 -4 -81 -14 -100 -24 -45 -22 -149 -55 -225 -71 -93 -20
-336 -15 -520 10 -88 12 -178 24 -200 27 -22 2 -56 7 -75 10 -66 9 -315 12
-375 4 -98 -13 -121 -19 -276 -66 -128 -38 -278 -75 -369 -90 -53 -9 -86 -14
-105 -18 -11 -2 -42 -7 -70 -10 -162 -22 -416 -83 -527 -127 -217 -85 -409
-226 -510 -372 -98 -143 -136 -284 -132 -486 4 -211 15 -270 139 -731 74 -275
109 -427 121 -530 6 -59 6 -263 -1 -320 -24 -191 -24 -723 0 -960 2 -19 6 -73
10 -120 4 -47 8 -87 10 -90 1 -3 6 -32 9 -65 7 -57 10 -77 21 -142 2 -16 11
-68 19 -118 116 -707 378 -1394 740 -1942 47 -72 86 -136 86 -142 0 -30 95
-164 170 -241 114 -116 220 -189 352 -241 243 -97 431 -63 505 89 23 49 27 70
27 152 1 107 -3 134 -39 275 -14 55 -28 116 -31 135 -2 19 -7 45 -9 57 -23
104 -23 409 0 503 0 3 4 27 9 53 9 58 10 61 31 152 49 208 139 442 271 703
182 358 289 476 416 459 110 -15 221 -195 288 -467 16 -67 32 -140 35 -163 4
-23 9 -57 11 -74 23 -152 26 -420 5 -507 -6 -27 -28 -95 -47 -150 -52 -146
-136 -389 -138 -401 -1 -5 -10 -35 -19 -65 -17 -59 -21 -76 -41 -190 -66 -372
88 -489 444 -337 229 98 423 261 569 478 157 235 300 619 361 974 5 33 12 71
15 85 9 43 24 143 30 200 3 30 8 66 10 80 6 35 19 167 30 301 10 124 21 427
30 814 5 221 10 276 29 365 44 194 117 363 295 677 208 370 251 488 257 709 4
181 -34 328 -137 538 -35 69 -49 110 -48 135 1 20 -3 55 -9 79 -19 81 -8 243
28 402 58 260 20 401 -159 579 -154 153 -331 231 -561 247 -41 3 -92 7 -112 8
-21 2 -39 2 -40 1z m117 -140 c280 -49 494 -138 565 -236 54 -75 65 -167 45
-374 -6 -55 -10 -179 -9 -275 0 -143 5 -193 23 -275 12 -55 24 -107 26 -115 1
-8 8 -35 15 -60 7 -25 12 -47 12 -50 0 -3 4 -14 8 -26 5 -11 11 -37 14 -57 3
-20 10 -56 15 -79 6 -24 13 -65 17 -93 3 -27 8 -57 9 -67 2 -9 7 -38 11 -65 5
-26 9 -50 9 -53 16 -72 16 -92 0 -116 -18 -28 -18 -28 -35 -139 -18 -120 -41
-165 -113 -222 -133 -104 -381 -380 -474 -528 -76 -120 -110 -239 -81 -278 14
-18 15 -18 45 7 32 27 58 82 62 131 1 17 36 55 50 55 4 0 -2 -42 -14 -93 -12
-51 -26 -118 -29 -149 -4 -30 -8 -64 -10 -74 -4 -19 -12 -109 -22 -239 -2 -38
-7 -281 -9 -540 -5 -544 -11 -741 -30 -885 -2 -19 -7 -63 -10 -97 -6 -59 -8
-77 -20 -133 -3 -14 -8 -43 -11 -65 -25 -168 -119 -440 -202 -581 -121 -208
-313 -387 -527 -493 -159 -79 -236 -75 -283 14 -17 33 -21 166 -9 267 7 58 70
365 106 518 28 120 59 279 66 337 3 26 8 58 11 71 11 53 15 224 5 274 -22 118
-104 280 -269 528 -54 80 -99 150 -101 155 -2 6 -7 12 -11 15 -4 3 -15 20 -24
38 -17 34 -17 34 13 63 70 66 104 149 70 170 -31 20 -116 -4 -244 -69 -314
-159 -522 -427 -626 -807 -25 -90 -56 -269 -64 -365 -3 -41 -8 -88 -11 -105
-7 -40 -7 -514 0 -635 11 -190 16 -329 20 -520 6 -293 -14 -383 -95 -422 -31
-16 -41 -16 -85 -5 -110 29 -310 207 -505 452 -123 154 -341 469 -406 585 -56
100 -252 632 -345 935 -49 163 -113 409 -140 540 -11 55 -22 109 -24 120 -10
48 -34 194 -39 235 -3 25 -9 79 -15 120 -24 191 -33 333 -34 550 0 158 10 424
18 465 2 11 7 58 11 105 l7 84 26 -57 c78 -174 75 101 -3 338 -9 28 -56 131
-105 230 -154 313 -205 499 -205 755 0 140 9 207 40 315 117 401 434 656 899
720 40 6 295 6 321 1 32 -6 159 -20 168 -18 4 1 7 -2 7 -8 0 -5 14 -23 31 -39
58 -56 196 -83 233 -45 15 14 15 18 0 43 -9 15 -56 54 -105 86 -124 81 -131
112 -31 142 86 27 564 25 882 -3 30 -3 75 -7 100 -9 25 -2 56 -4 70 -5 14 -1
-15 -10 -65 -21 -309 -67 -390 -94 -366 -123 30 -35 262 -52 416 -29 127 18
220 44 470 129 288 98 398 128 539 149 22 3 41 7 43 9 6 5 268 -2 308 -9z"/>
<path d="M4547 6624 c-1 -1 -36 -5 -77 -8 -91 -8 -132 -14 -185 -28 -22 -5
-51 -12 -64 -15 -44 -8 -192 -59 -378 -132 -167 -65 -282 -99 -388 -116 -48
-7 -230 -8 -265 0 -13 2 -42 7 -65 10 -22 3 -73 15 -113 25 -40 11 -77 20 -82
20 -6 0 -10 -17 -10 -38 l0 -38 128 -46 c70 -25 147 -51 171 -58 23 -6 41 -13
40 -15 -2 -2 -77 -24 -166 -49 -218 -62 -318 -112 -355 -179 -9 -17 -4 -18 78
-16 48 1 104 6 123 10 20 4 50 10 67 13 100 18 339 123 574 251 251 138 465
232 568 250 18 3 65 12 105 21 39 8 92 17 117 20 25 3 63 7 85 10 71 10 318
12 395 3 233 -26 419 -91 602 -212 92 -60 117 -71 137 -58 15 10 10 86 -9 120
-10 20 -193 102 -325 146 -83 28 -235 69 -295 79 -19 3 -45 8 -58 11 -68 13
-344 28 -355 19z"/>
<path d="M2421 6416 c-26 -31 112 -105 194 -106 53 0 95 20 95 45 0 20 -7 23
-126 45 -60 11 -119 23 -130 25 -12 3 -27 -2 -33 -9z"/>
<path d="M2543 6255 c6 -24 20 -55 31 -70 19 -23 26 -26 57 -20 20 4 49 17 65
31 l29 24 -24 20 c-13 11 -37 20 -55 20 -17 0 -49 9 -72 19 l-41 19 10 -43z"/>
<path d="M5565 5611 c-3 -6 -15 -36 -25 -66 -32 -93 -13 -315 27 -315 9 0 13
14 13 43 0 23 4 59 9 79 6 24 5 40 -2 47 -15 15 -9 88 9 123 8 16 12 39 8 53
-7 30 -29 50 -39 36z"/>
<path d="M5396 5441 c-59 -65 -19 -251 49 -225 15 6 17 17 12 95 -5 73 -26
149 -41 149 -1 0 -10 -8 -20 -19z"/>
<path d="M5250 5350 c-41 -10 -37 -97 5 -120 52 -28 115 31 67 61 -12 8 -17
20 -14 34 4 25 -18 35 -58 25z"/>
<path d="M1717 4423 c-4 -3 -7 -25 -7 -49 0 -37 6 -48 49 -92 51 -52 58 -73
90 -252 19 -109 36 -128 81 -92 21 17 23 26 21 108 -4 179 -49 309 -124 357
-38 25 -95 36 -110 20z"/>
<path d="M5398 4386 c-54 -29 -193 -166 -282 -281 -49 -63 -196 -310 -196
-330 0 -2 -13 -32 -29 -67 -46 -98 -53 -133 -30 -154 18 -17 19 -16 19 23 0
39 3 42 48 64 46 23 48 26 65 94 46 183 157 345 352 516 17 14 39 37 50 50 72
85 73 121 3 85z"/>
<path d="M2011 4336 c-19 -23 -15 -64 13 -152 14 -44 28 -96 30 -115 12 -88
19 -124 42 -212 14 -56 21 -70 42 -78 43 -17 50 -6 51 73 0 40 -4 89 -9 108
-5 19 -11 53 -15 74 -22 149 -42 204 -104 283 -29 37 -34 39 -50 19z"/>
<path d="M5014 4220 c-28 -3 -60 -12 -70 -20 -52 -42 -68 -59 -98 -105 -18
-27 -57 -108 -85 -179 -56 -136 -57 -145 -30 -249 12 -51 31 -72 72 -82 l27
-7 1 78 c2 178 19 241 90 334 14 19 30 51 34 70 9 43 31 72 90 118 65 50 63
52 -31 42z"/>
<path d="M2297 4126 c-22 -8 -27 -15 -22 -31 14 -46 35 -194 35 -244 0 -41 -5
-60 -20 -76 -19 -20 -19 -22 -3 -57 21 -46 53 -54 87 -23 25 23 31 45 41 149
3 33 7 61 9 64 3 2 -2 22 -10 44 -8 23 -16 52 -19 65 -15 88 -50 126 -98 109z"/>
<path d="M4645 4114 c-13 -14 -29 -42 -36 -62 -6 -21 -15 -41 -19 -47 -14 -20
-33 -121 -33 -180 -1 -82 29 -235 47 -247 18 -13 66 -9 66 5 0 6 -9 44 -19 82
-41 160 -19 311 59 396 l41 44 -21 17 c-31 25 -57 22 -85 -8z"/>
<path d="M2543 3972 c-5 -15 -10 -62 -12 -104 -2 -72 -1 -78 23 -93 13 -9 37
-15 52 -13 38 4 47 49 28 139 -8 37 -12 73 -9 81 4 9 -6 14 -34 15 -35 2 -40
-1 -48 -25z"/>
<path d="M1744 3513 c-33 -51 -51 -183 -59 -438 -4 -121 -9 -179 -23 -270 -12
-73 -4 -156 17 -185 22 -31 74 -37 125 -16 l35 15 -5 -42 c-4 -23 -12 -58 -18
-78 -21 -61 13 -119 71 -119 l33 0 1 -82 c1 -191 13 -333 44 -558 71 -500 261
-930 534 -1208 55 -56 79 -74 123 -87 68 -22 117 -14 159 23 44 39 52 87 25
160 -31 87 -50 107 -93 103 -11 -1 -44 -51 -43 -66 3 -87 -1 -115 -18 -115
-37 0 -216 213 -301 359 -97 166 -189 408 -226 596 -25 128 -40 228 -50 330
-4 39 -9 78 -11 87 -3 19 -13 266 -18 450 -3 111 -5 120 -36 174 -39 69 -43
103 -25 197 13 70 9 97 -17 97 -5 0 -40 -13 -78 -30 -38 -16 -71 -30 -75 -30
-7 0 3 168 10 180 2 3 6 34 9 70 4 36 8 75 10 85 2 11 7 47 11 80 4 33 8 71
10 85 18 136 18 144 -17 195 -42 62 -79 75 -104 38z"/>
<path d="M4949 3138 c-1 -2 -2 -57 -4 -123 -3 -148 -15 -427 -20 -435 -1 -3
-6 -52 -9 -110 -4 -58 -9 -114 -11 -125 -2 -11 -7 -40 -10 -65 -3 -25 -7 -56
-9 -70 -3 -14 -12 -68 -21 -120 -21 -129 -76 -336 -118 -446 -75 -196 -151
-317 -273 -436 -100 -98 -130 -143 -141 -218 -17 -108 22 -210 95 -253 57 -34
127 -3 178 78 10 17 40 57 65 90 114 148 241 381 326 600 87 224 123 381 116
513 -2 42 -4 82 -4 87 0 6 16 55 35 111 32 93 57 208 71 328 4 28 8 53 11 57
3 5 -7 16 -21 25 -17 11 -25 25 -25 46 0 16 -7 36 -15 44 -8 9 -15 30 -16 47
-7 243 -31 321 -112 357 -36 17 -84 26 -88 18z m145 -523 c-1 -11 -5 -67 -8
-125 -6 -121 -13 -194 -26 -265 -5 -27 -12 -66 -15 -85 -22 -131 -109 -414
-185 -600 -62 -149 -103 -232 -177 -352 -31 -51 -87 -142 -123 -202 -37 -60
-73 -110 -81 -112 -9 -1 -30 4 -47 12 -25 10 -32 19 -32 42 0 32 40 99 96 158
121 128 244 322 318 504 15 36 31 74 36 85 27 62 100 317 114 400 3 17 12 68
20 115 8 47 17 114 21 150 7 73 14 106 52 238 18 61 30 87 34 75 4 -10 5 -27
3 -38z"/>
</g>
</svg>
